# xmcd
#
# Track frame offsets: 
#        183
#        13460
#        25760
#        34308
#        38660
#        49683
#        66035
#        78498
#        84003
#        87108
#        96185
#        105485
#        125660
#        145668
#        159110
#        169743
#        180935
#        199685
#        207260
#        213703
#        227308
#        246035
#        253498
#
# Disc length: 3528 seconds
#
# Revision: 10
# Processed by: cddbd v1.5.2PL0 Copyright (c) Steve Scherf et al.
# Submitted via: ExactAudioCopy v1.0b3
#
DISCID=280dc617
DTITLE=Chopin - Chopin - CD7-8 - Mazurkas
DYEAR=1988
DGENRE=Classique
TTITLE0=Cor de Groot - Mazurka Op 6 - N1  in F sharp minor  (Cor de Gr
TTITLE0=oot, piano Pleyel 1847)
TTITLE1=Cor de Groot - Mazurka Op 6 - N2  in C sharp minor
TTITLE2=Cor de Groot - Mazurka Op 6 - N3  in E major
TTITLE3=Cor de Groot - Mazurka Op 6 - N4  in E flat Minor
TTITLE4=Cor de Groot - Mazurka Op 7 - N1  in B flat minor
TTITLE5=Cor de Groot - Mazurka Op 7 - N2  in A minor
TTITLE6=Cor de Groot - Mazurka Op 7 - N3  in F minor
TTITLE7=Cor de Groot - Mazurka Op 7 - N4  in A flat minor
TTITLE8=Cor de Groot - Mazurka Op 7 - N5  in C major
TTITLE9=Cor de Groot - Mazurka Op 17 - N1  in B flat major
TTITLE10=Cor de Groot - Mazurka Op 17 - N2  in E minor
TTITLE11=Cor de Groot - Mazurka Op 17 - N3  in A flat major
TTITLE12=Cor de Groot - Mazurka Op 17 - N4  in A minor
TTITLE13=Cor de Groot - Mazurka Op 24 - N1  in G minor
TTITLE14=Cor de Groot - Mazurka Op 24 - N2  in C major
TTITLE15=Cor de Groot - Mazurka Op 24 - N3  in A flat major
TTITLE16=Cor de Groot - Mazurka Op 24 - N4  in B flat minor
TTITLE17=Cor de Groot - Mazurka Op 30 - N1  in C minor
TTITLE18=Cor de Groot - Mazurka Op 30 - N2  in B minor
TTITLE19=Cor de Groot - Mazurka Op 30 - N3  in D flat minor
TTITLE20=Cor de Groot - Mazurka Op 30 - N4  in C sharp minor
TTITLE21=Cor de Groot - Mazurka Op 33 - N1  in G sharp minor
TTITLE22=Cor de Groot - Mazurka Op 33 - N2  in D major
EXTD=YEAR: 1988
EXTT0=
EXTT1=
EXTT2=
EXTT3=
EXTT4=
EXTT5=
EXTT6=
EXTT7=
EXTT8=
EXTT9=
EXTT10=
EXTT11=
EXTT12=
EXTT13=
EXTT14=
EXTT15=
EXTT16=
EXTT17=
EXTT18=
EXTT19=
EXTT20=
EXTT21=
EXTT22=
PLAYORDER=
